<svg width="256" height="256" viewBox="0 0 256 256" fill="none" xmlns="http://www.w3.org/2000/svg">
<g clip-path="url(#clip0)">
<circle cx="128" cy="128" r="123" fill="#F0E93D" stroke="#333333" stroke-width="10"/>
<circle cx="88" cy="97" r="20" fill="#333333"/>
<circle cx="168" cy="97" r="20" fill="#333333"/>
<path d="M181 180C181 181.1 180.425 182.742 178.08 184.827C175.741 186.907 172.07 189.009 167.106 190.876C157.214 194.596 143.212 197 127.5 197C111.788 197 97.7863 194.596 87.8943 190.876C82.93 189.009 79.2595 186.907 76.9195 184.827C74.5747 182.742 74 181.1 74 180C74 178.9 74.5747 177.258 76.9195 175.173C79.2595 173.093 82.93 170.991 87.8943 169.124C97.7863 165.404 111.788 163 127.5 163C143.212 163 157.214 165.404 167.106 169.124C172.07 170.991 175.741 173.093 178.08 175.173C180.425 177.258 181 178.9 181 180Z" fill="#918C1F" stroke="#333333" stroke-width="10"/>
</g>
<defs>
<clipPath id="clip0">
<rect width="256" height="256" fill="white"/>
</clipPath>
</defs>
</svg>
