<?xml version="1.0" standalone="no"?>
<!DOCTYPE svg PUBLIC "-//W3C//DTD SVG 20010904//EN"
 "http://www.w3.org/TR/2001/REC-SVG-20010904/DTD/svg10.dtd">
<svg version="1.0" xmlns="http://www.w3.org/2000/svg"
 width="700.000000pt" height="700.000000pt" viewBox="0 0 700.000000 700.000000"
 preserveAspectRatio="xMidYMid meet">
<metadata>
Created by potrace 1.11, written by Peter Selinger 2001-2013
</metadata>
<g transform="translate(0.000000,700.000000) scale(0.100000,-0.100000)"
fill="#000000" stroke="none">
<path d="M3280 6994 c-19 -2 -84 -9 -145 -14 -635 -60 -1261 -314 -1795 -726
-149 -114 -480 -445 -594 -594 -411 -531 -654 -1132 -728 -1795 -17 -155 -17
-575 0 -730 60 -538 237 -1048 523 -1503 271 -432 674 -832 1107 -1100 462
-286 932 -448 1487 -514 144 -17 586 -17 730 0 845 100 1557 448 2141 1044
143 146 233 253 342 405 349 488 561 1046 634 1668 16 145 17 588 0 730 -81
683 -322 1274 -734 1802 -104 134 -369 407 -500 515 -536 444 -1146 708 -1838
794 -117 15 -552 27 -630 18z m400 -274 c601 -38 1130 -215 1615 -540 457
-307 825 -722 1074 -1210 214 -419 325 -832 350 -1305 49 -907 -294 -1800
-939 -2444 -984 -985 -2484 -1227 -3728 -602 -632 317 -1131 821 -1442 1456
-107 218 -178 406 -230 609 -75 293 -102 511 -102 816 0 536 110 995 354 1472
515 1011 1529 1675 2663 1747 190 12 204 12 385 1z"/>
<path d="M2239 4867 c-229 -78 -379 -284 -379 -520 1 -286 226 -524 514 -544
255 -17 495 157 561 407 8 30 15 91 15 135 0 156 -52 279 -164 390 -113 112
-220 155 -386 155 -72 0 -111 -6 -161 -23z"/>
<path d="M4447 4875 c-179 -49 -334 -208 -382 -392 -19 -73 -19 -202 0 -273
62 -233 286 -409 521 -410 251 -1 482 180 539 421 66 281 -97 564 -374 649
-75 24 -228 26 -304 5z"/>
<path d="M3170 2670 c-389 -34 -713 -111 -945 -224 -230 -113 -334 -228 -335
-369 0 -80 30 -138 110 -217 194 -189 620 -326 1158 -371 180 -15 666 -6 822
15 496 69 849 199 1013 375 244 261 -16 552 -628 702 -266 65 -479 89 -825 94
-146 2 -312 -1 -370 -5z"/>
</g>
</svg>
