<svg width="24" height="24" viewBox="0 0 24 24" fill="none" xmlns="http://www.w3.org/2000/svg">
<path d="M20.42 10.18L12.71 2.3C12.617 2.20627 12.5064 2.13188 12.3846 2.08111C12.2627 2.03034 12.132 2.0042 12 2.0042C11.868 2.0042 11.7373 2.03034 11.6154 2.08111C11.4936 2.13188 11.383 2.20627 11.29 2.3L3.58 10.19C3.39344 10.3781 3.24609 10.6013 3.14653 10.8468C3.04696 11.0923 2.99715 11.3551 3 11.62V20C2.99923 20.5119 3.19477 21.0046 3.54637 21.3767C3.89798 21.7488 4.37886 21.9718 4.89 22H19.11C19.6211 21.9718 20.102 21.7488 20.4536 21.3767C20.8052 21.0046 21.0008 20.5119 21 20V11.62C21.0008 11.0829 20.7928 10.5666 20.42 10.18ZM10 20V14H14V20H10ZM19 20H16V13C16 12.7348 15.8946 12.4804 15.7071 12.2929C15.5196 12.1054 15.2652 12 15 12H9C8.73478 12 8.48043 12.1054 8.29289 12.2929C8.10536 12.4804 8 12.7348 8 13V20H5V11.58L12 4.43L19 11.62V20Z" fill="#0E8EFF"/>
</svg>
