<svg width="72" height="48" viewBox="0 0 72 48" fill="none" xmlns="http://www.w3.org/2000/svg">
<path d="M55 30C55.2652 30 55.5196 29.8946 55.7071 29.7071C55.8946 29.5196 56 29.2652 56 29C56 28.7348 55.8946 28.4804 55.7071 28.2929C55.5196 28.1054 55.2652 28 55 28H53C52.7348 28 52.4804 28.1054 52.2929 28.2929C52.1054 28.4804 52 28.7348 52 29V43C52 43.2652 52.1054 43.5196 52.2929 43.7071C52.4804 43.8946 52.7348 44 53 44H55C55.2652 44 55.5196 43.8946 55.7071 43.7071C55.8946 43.5196 56 43.2652 56 43C56 42.7348 55.8946 42.4804 55.7071 42.2929C55.5196 42.1054 55.2652 42 55 42H54V30H55Z" fill="#0E8EFF"/>
<path d="M68.82 35.42L66 31.42C65.8471 31.2044 65.615 31.0581 65.3545 31.0132C65.0941 30.9682 64.8264 31.0282 64.61 31.18C64.5018 31.2558 64.4098 31.3522 64.3391 31.4638C64.2684 31.5754 64.2206 31.6998 64.1982 31.83C64.1759 31.9602 64.1796 32.0934 64.2091 32.2222C64.2386 32.3509 64.2933 32.4725 64.37 32.58L66.09 35H58C57.7348 35 57.4804 35.1054 57.2929 35.2929C57.1054 35.4804 57 35.7348 57 36C57 36.2652 57.1054 36.5196 57.2929 36.7071C57.4804 36.8946 57.7348 37 58 37H66L64.2 39.4C64.1212 39.5051 64.0639 39.6246 64.0313 39.7518C63.9987 39.879 63.9915 40.0114 64.01 40.1414C64.0286 40.2714 64.0726 40.3965 64.1395 40.5095C64.2064 40.6225 64.2949 40.7212 64.4 40.8C64.5731 40.9298 64.7836 41 65 41C65.1552 41 65.3084 40.9639 65.4472 40.8944C65.5861 40.825 65.7069 40.7242 65.8 40.6L68.8 36.6C68.9281 36.4309 68.999 36.2254 69.0026 36.0133C69.0062 35.8011 68.9423 35.5934 68.82 35.42Z" fill="#0E8EFF"/>
<path d="M55 6C55.2652 6 55.5196 5.89464 55.7071 5.70711C55.8946 5.51957 56 5.26522 56 5C56 4.73478 55.8946 4.48043 55.7071 4.29289C55.5196 4.10536 55.2652 4 55 4H53C52.7348 4 52.4804 4.10536 52.2929 4.29289C52.1054 4.48043 52 4.73478 52 5V19C52 19.2652 52.1054 19.5196 52.2929 19.7071C52.4804 19.8946 52.7348 20 53 20H55C55.2652 20 55.5196 19.8946 55.7071 19.7071C55.8946 19.5196 56 19.2652 56 19C56 18.7348 55.8946 18.4804 55.7071 18.2929C55.5196 18.1054 55.2652 18 55 18H54V6H55Z" fill="#888888"/>
<path d="M68.82 11.42L66 7.42C65.8471 7.20441 65.615 7.05814 65.3545 7.01317C65.0941 6.9682 64.8264 7.02818 64.61 7.18C64.5018 7.25579 64.4098 7.35224 64.3391 7.46381C64.2684 7.57537 64.2206 7.69982 64.1982 7.82998C64.1759 7.96015 64.1796 8.09344 64.2091 8.22217C64.2386 8.3509 64.2933 8.47252 64.37 8.58L66.09 11H58C57.7348 11 57.4804 11.1054 57.2929 11.2929C57.1054 11.4804 57 11.7348 57 12C57 12.2652 57.1054 12.5196 57.2929 12.7071C57.4804 12.8946 57.7348 13 58 13H66L64.2 15.4C64.1212 15.5051 64.0639 15.6246 64.0313 15.7518C63.9987 15.879 63.9915 16.0114 64.01 16.1414C64.0286 16.2714 64.0726 16.3965 64.1395 16.5095C64.2064 16.6225 64.2949 16.7212 64.4 16.8C64.5731 16.9298 64.7836 17 65 17C65.1552 17 65.3084 16.9639 65.4472 16.8944C65.5861 16.825 65.7069 16.7242 65.8 16.6L68.8 12.6C68.9281 12.4309 68.999 12.2254 69.0026 12.0133C69.0062 11.8011 68.9423 11.5934 68.82 11.42Z" fill="#888888"/>
<path d="M43 28H41C40.7348 28 40.4804 28.1054 40.2929 28.2929C40.1054 28.4804 40 28.7348 40 29C40 29.2652 40.1054 29.5196 40.2929 29.7071C40.4804 29.8946 40.7348 30 41 30H42V42H41C40.7348 42 40.4804 42.1054 40.2929 42.2929C40.1054 42.4804 40 42.7348 40 43C40 43.2652 40.1054 43.5196 40.2929 43.7071C40.4804 43.8946 40.7348 44 41 44H43C43.2652 44 43.5196 43.8946 43.7071 43.7071C43.8946 43.5196 44 43.2652 44 43V29C44 28.7348 43.8946 28.4804 43.7071 28.2929C43.5196 28.1054 43.2652 28 43 28Z" fill="#0E8EFF"/>
<path d="M35.8 31.4C35.6409 31.1878 35.404 31.0476 35.1414 31.01C34.8789 30.9725 34.6122 31.0409 34.4 31.2C34.1878 31.3591 34.0476 31.596 34.0101 31.8586C33.9725 32.1211 34.0409 32.3878 34.2 32.6L36 35H28C27.7348 35 27.4804 35.1054 27.2929 35.2929C27.1054 35.4804 27 35.7348 27 36C27 36.2652 27.1054 36.5196 27.2929 36.7071C27.4804 36.8946 27.7348 37 28 37H36.09L34.37 39.44C34.2933 39.5475 34.2386 39.6691 34.2091 39.7978C34.1796 39.9266 34.1759 40.0599 34.1982 40.19C34.2206 40.3202 34.2684 40.4446 34.3391 40.5562C34.4098 40.6678 34.5018 40.7642 34.61 40.84C34.78 40.9587 34.9827 41.0216 35.19 41.02C35.3486 41.0193 35.5048 40.9808 35.6457 40.9078C35.7865 40.8347 35.908 40.7292 36 40.6L38.82 36.6C38.9451 36.4287 39.0126 36.2221 39.0126 36.01C39.0126 35.7979 38.9451 35.5913 38.82 35.42L35.8 31.4Z" fill="#0E8EFF"/>
<path d="M43 4H41C40.7348 4 40.4804 4.10536 40.2929 4.29289C40.1054 4.48043 40 4.73478 40 5C40 5.26522 40.1054 5.51957 40.2929 5.70711C40.4804 5.89464 40.7348 6 41 6H42V18H41C40.7348 18 40.4804 18.1054 40.2929 18.2929C40.1054 18.4804 40 18.7348 40 19C40 19.2652 40.1054 19.5196 40.2929 19.7071C40.4804 19.8946 40.7348 20 41 20H43C43.2652 20 43.5196 19.8946 43.7071 19.7071C43.8946 19.5196 44 19.2652 44 19V5C44 4.73478 43.8946 4.48043 43.7071 4.29289C43.5196 4.10536 43.2652 4 43 4Z" fill="#888888"/>
<path d="M35.8 7.4C35.6409 7.18783 35.404 7.04756 35.1414 7.01005C34.8789 6.97254 34.6122 7.04087 34.4 7.2C34.1878 7.35913 34.0476 7.59603 34.0101 7.85858C33.9725 8.12113 34.0409 8.38783 34.2 8.6L36 11H28C27.7348 11 27.4804 11.1054 27.2929 11.2929C27.1054 11.4804 27 11.7348 27 12C27 12.2652 27.1054 12.5196 27.2929 12.7071C27.4804 12.8946 27.7348 13 28 13H36.09L34.37 15.44C34.2933 15.5475 34.2386 15.6691 34.2091 15.7978C34.1796 15.9266 34.1759 16.0599 34.1982 16.19C34.2206 16.3202 34.2684 16.4446 34.3391 16.5562C34.4098 16.6678 34.5018 16.7642 34.61 16.84C34.78 16.9587 34.9827 17.0216 35.19 17.02C35.3486 17.0193 35.5048 16.9808 35.6457 16.9078C35.7865 16.8347 35.908 16.7292 36 16.6L38.82 12.6C38.9451 12.4287 39.0126 12.2221 39.0126 12.01C39.0126 11.7979 38.9451 11.5913 38.82 11.42L35.8 7.4Z" fill="#888888"/>
<path d="M20.42 10.18L12.71 2.3C12.617 2.20627 12.5064 2.13188 12.3846 2.08111C12.2627 2.03034 12.132 2.0042 12 2.0042C11.868 2.0042 11.7373 2.03034 11.6154 2.08111C11.4936 2.13188 11.383 2.20627 11.29 2.3L3.58 10.19C3.39344 10.3781 3.24609 10.6013 3.14653 10.8468C3.04696 11.0923 2.99715 11.3551 3 11.62V20C2.99923 20.5119 3.19477 21.0046 3.54637 21.3767C3.89798 21.7488 4.37886 21.9718 4.89 22H19.11C19.6211 21.9718 20.102 21.7488 20.4536 21.3767C20.8052 21.0046 21.0008 20.5119 21 20V11.62C21.0008 11.0829 20.7928 10.5666 20.42 10.18ZM10 20V14H14V20H10ZM19 20H16V13C16 12.7348 15.8946 12.4804 15.7071 12.2929C15.5196 12.1054 15.2652 12 15 12H9C8.73478 12 8.48043 12.1054 8.29289 12.2929C8.10536 12.4804 8 12.7348 8 13V20H5V11.58L12 4.43L19 11.62V20Z" fill="#888888"/>
<path d="M20.42 34.18L12.71 26.3C12.617 26.2063 12.5064 26.1319 12.3846 26.0811C12.2627 26.0303 12.132 26.0042 12 26.0042C11.868 26.0042 11.7373 26.0303 11.6154 26.0811C11.4936 26.1319 11.383 26.2063 11.29 26.3L3.58 34.19C3.39344 34.3781 3.24609 34.6013 3.14653 34.8468C3.04696 35.0923 2.99715 35.3551 3 35.62V44C2.99923 44.5119 3.19477 45.0046 3.54637 45.3767C3.89798 45.7488 4.37886 45.9718 4.89 46H19.11C19.6211 45.9718 20.102 45.7488 20.4536 45.3767C20.8052 45.0046 21.0008 44.5119 21 44V35.62C21.0008 35.0829 20.7928 34.5666 20.42 34.18ZM10 44V38H14V44H10ZM19 44H16V37C16 36.7348 15.8946 36.4804 15.7071 36.2929C15.5196 36.1054 15.2652 36 15 36H9C8.73478 36 8.48043 36.1054 8.29289 36.2929C8.10536 36.4804 8 36.7348 8 37V44H5V35.58L12 28.43L19 35.62V44Z" fill="#0E8EFF"/>
</svg>
