<svg width="24" height="24" viewBox="0 0 24 24" fill="none" xmlns="http://www.w3.org/2000/svg">
<path d="M20 18.998V8.13002L12 3.33002L4 8.13002V18.998H8V16.248C8 15.1872 8.42143 14.1697 9.17157 13.4196C9.92172 12.6694 10.9391 12.248 12 12.248C13.0609 12.248 14.0783 12.6694 14.8284 13.4196C15.5786 14.1697 16 15.1872 16 16.248V18.998H20ZM14 20.998V16.248C14 15.7176 13.7893 15.2089 13.4142 14.8338C13.0391 14.4587 12.5304 14.248 12 14.248C11.4696 14.248 10.9609 14.4587 10.5858 14.8338C10.2107 15.2089 10 15.7176 10 16.248V20.998H4C3.46957 20.998 2.96086 20.7873 2.58579 20.4122C2.21071 20.0372 2 19.5285 2 18.998V8.13002C2 7.78465 2.08943 7.44516 2.25959 7.14462C2.42976 6.84407 2.67485 6.59271 2.971 6.41502L10.971 1.61502C11.2818 1.42852 11.6375 1.33 12 1.33C12.3625 1.33 12.7182 1.42852 13.029 1.61502L21.029 6.41502C21.3252 6.59271 21.5702 6.84407 21.7404 7.14462C21.9106 7.44516 22 7.78465 22 8.13002V18.998C22 19.5285 21.7893 20.0372 21.4142 20.4122C21.0391 20.7873 20.5304 20.998 20 20.998H14Z" fill="white"/>
</svg>
