<svg width="48" height="48" viewBox="0 0 48 48" fill="none" xmlns="http://www.w3.org/2000/svg">
<path d="M36 46C30.477 46 26 41.523 26 36C26 30.477 30.477 26 36 26C41.523 26 46 30.477 46 36C46 41.523 41.523 46 36 46ZM36 44C38.1217 44 40.1566 43.1571 41.6569 41.6569C43.1571 40.1566 44 38.1217 44 36C44 33.8783 43.1571 31.8434 41.6569 30.3431C40.1566 28.8429 38.1217 28 36 28C33.8783 28 31.8434 28.8429 30.3431 30.3431C28.8429 31.8434 28 33.8783 28 36C28 38.1217 28.8429 40.1566 30.3431 41.6569C31.8434 43.1571 33.8783 44 36 44V44ZM32.08 39.394C32.0283 39.2732 32.0008 39.1434 31.9993 39.0119C31.9977 38.8805 32.022 38.7501 32.0709 38.6281C32.1197 38.506 32.1921 38.3948 32.2839 38.3008C32.3757 38.2068 32.4852 38.1317 32.606 38.08C32.7268 38.0283 32.8566 38.0008 32.9881 37.9993C33.1195 37.9977 33.2499 38.022 33.3719 38.0709C33.494 38.1197 33.6052 38.1921 33.6992 38.2839C33.7932 38.3757 33.8683 38.4852 33.92 38.606C34.0948 39.0127 34.385 39.3592 34.7547 39.6027C35.1244 39.8462 35.5573 39.976 36 39.976C36.4427 39.976 36.8756 39.8462 37.2453 39.6027C37.615 39.3592 37.9052 39.0127 38.08 38.606C38.1317 38.4852 38.2068 38.3757 38.3008 38.2839C38.3948 38.1921 38.506 38.1197 38.6281 38.0709C38.7501 38.022 38.8805 37.9977 39.0119 37.9993C39.1434 38.0008 39.2732 38.0283 39.394 38.08C39.5148 38.1317 39.6243 38.2068 39.7161 38.3008C39.8079 38.3948 39.8803 38.506 39.9291 38.6281C39.978 38.7501 40.0023 38.8805 40.0007 39.0119C39.9992 39.1434 39.9717 39.2732 39.92 39.394C39.5915 40.1615 39.0449 40.8156 38.3481 41.2753C37.6513 41.7351 36.8348 41.9801 36 41.9801C35.1652 41.9801 34.3487 41.7351 33.6519 41.2753C32.9551 40.8156 32.4085 40.1615 32.08 39.394V39.394ZM33 32C33.2652 32 33.5196 32.1054 33.7071 32.2929C33.8946 32.4804 34 32.7348 34 33V35C34 35.2652 33.8946 35.5196 33.7071 35.7071C33.5196 35.8946 33.2652 36 33 36C32.7348 36 32.4804 35.8946 32.2929 35.7071C32.1054 35.5196 32 35.2652 32 35V33C32 32.7348 32.1054 32.4804 32.2929 32.2929C32.4804 32.1054 32.7348 32 33 32V32ZM39 32C39.2652 32 39.5196 32.1054 39.7071 32.2929C39.8946 32.4804 40 32.7348 40 33V35C40 35.2652 39.8946 35.5196 39.7071 35.7071C39.5196 35.8946 39.2652 36 39 36C38.7348 36 38.4804 35.8946 38.2929 35.7071C38.1054 35.5196 38 35.2652 38 35V33C38 32.7348 38.1054 32.4804 38.2929 32.2929C38.4804 32.1054 38.7348 32 39 32V32Z" fill="#0E8EFF"/>
<path d="M36 22C30.477 22 26 17.523 26 12C26 6.477 30.477 2 36 2C41.523 2 46 6.477 46 12C46 17.523 41.523 22 36 22ZM36 20C38.1217 20 40.1566 19.1571 41.6569 17.6569C43.1571 16.1566 44 14.1217 44 12C44 9.87827 43.1571 7.84344 41.6569 6.34315C40.1566 4.84285 38.1217 4 36 4C33.8783 4 31.8434 4.84285 30.3431 6.34315C28.8429 7.84344 28 9.87827 28 12C28 14.1217 28.8429 16.1566 30.3431 17.6569C31.8434 19.1571 33.8783 20 36 20V20ZM32.08 15.394C32.0283 15.2732 32.0008 15.1434 31.9993 15.0119C31.9977 14.8805 32.022 14.7501 32.0709 14.6281C32.1197 14.506 32.1921 14.3948 32.2839 14.3008C32.3757 14.2068 32.4852 14.1317 32.606 14.08C32.7268 14.0283 32.8566 14.0008 32.9881 13.9993C33.1195 13.9977 33.2499 14.022 33.3719 14.0709C33.494 14.1197 33.6052 14.1921 33.6992 14.2839C33.7932 14.3757 33.8683 14.4852 33.92 14.606C34.0948 15.0127 34.385 15.3592 34.7547 15.6027C35.1244 15.8462 35.5573 15.976 36 15.976C36.4427 15.976 36.8756 15.8462 37.2453 15.6027C37.615 15.3592 37.9052 15.0127 38.08 14.606C38.1317 14.4852 38.2068 14.3757 38.3008 14.2839C38.3948 14.1921 38.506 14.1197 38.6281 14.0709C38.7501 14.022 38.8805 13.9977 39.0119 13.9993C39.1434 14.0008 39.2732 14.0283 39.394 14.08C39.5148 14.1317 39.6243 14.2068 39.7161 14.3008C39.8079 14.3948 39.8803 14.506 39.9291 14.6281C39.978 14.7501 40.0023 14.8805 40.0007 15.0119C39.9992 15.1434 39.9717 15.2732 39.92 15.394C39.5915 16.1615 39.0449 16.8156 38.3481 17.2753C37.6513 17.7351 36.8348 17.9801 36 17.9801C35.1652 17.9801 34.3487 17.7351 33.6519 17.2753C32.9551 16.8156 32.4085 16.1615 32.08 15.394V15.394ZM33 8C33.2652 8 33.5196 8.10536 33.7071 8.29289C33.8946 8.48043 34 8.73478 34 9V11C34 11.2652 33.8946 11.5196 33.7071 11.7071C33.5196 11.8946 33.2652 12 33 12C32.7348 12 32.4804 11.8946 32.2929 11.7071C32.1054 11.5196 32 11.2652 32 11V9C32 8.73478 32.1054 8.48043 32.2929 8.29289C32.4804 8.10536 32.7348 8 33 8V8ZM39 8C39.2652 8 39.5196 8.10536 39.7071 8.29289C39.8946 8.48043 40 8.73478 40 9V11C40 11.2652 39.8946 11.5196 39.7071 11.7071C39.5196 11.8946 39.2652 12 39 12C38.7348 12 38.4804 11.8946 38.2929 11.7071C38.1054 11.5196 38 11.2652 38 11V9C38 8.73478 38.1054 8.48043 38.2929 8.29289C38.4804 8.10536 38.7348 8 39 8V8Z" fill="#888888"/>
<path d="M20 44V33.132L12 28.332L4 33.132V44H8V41.25C8 40.1891 8.42143 39.1717 9.17157 38.4216C9.92172 37.6714 10.9391 37.25 12 37.25C13.0609 37.25 14.0783 37.6714 14.8284 38.4216C15.5786 39.1717 16 40.1891 16 41.25V44H20ZM14 46V41.25C14 40.7196 13.7893 40.2109 13.4142 39.8358C13.0391 39.4607 12.5304 39.25 12 39.25C11.4696 39.25 10.9609 39.4607 10.5858 39.8358C10.2107 40.2109 10 40.7196 10 41.25V46H4C3.46957 46 2.96086 45.7893 2.58579 45.4142C2.21071 45.0391 2 44.5304 2 44V33.132C2 32.7866 2.08943 32.4471 2.25959 32.1466C2.42976 31.8461 2.67485 31.5947 2.971 31.417L10.971 26.617C11.2818 26.4305 11.6375 26.332 12 26.332C12.3625 26.332 12.7182 26.4305 13.029 26.617L21.029 31.417C21.3252 31.5947 21.5702 31.8461 21.7404 32.1466C21.9106 32.4471 22 32.7866 22 33.132V44C22 44.5304 21.7893 45.0391 21.4142 45.4142C21.0391 45.7893 20.5304 46 20 46H14Z" fill="#0E8EFF"/>
<path d="M20 20V9.132L12 4.332L4 9.132V20H8V17.25C8 16.1891 8.42143 15.1717 9.17157 14.4216C9.92172 13.6714 10.9391 13.25 12 13.25C13.0609 13.25 14.0783 13.6714 14.8284 14.4216C15.5786 15.1717 16 16.1891 16 17.25V20H20ZM14 22V17.25C14 16.7196 13.7893 16.2109 13.4142 15.8358C13.0391 15.4607 12.5304 15.25 12 15.25C11.4696 15.25 10.9609 15.4607 10.5858 15.8358C10.2107 16.2109 10 16.7196 10 17.25V22H4C3.46957 22 2.96086 21.7893 2.58579 21.4142C2.21071 21.0391 2 20.5304 2 20V9.132C2 8.78663 2.08943 8.44714 2.25959 8.1466C2.42976 7.84605 2.67485 7.59469 2.971 7.417L10.971 2.617C11.2818 2.4305 11.6375 2.33198 12 2.33198C12.3625 2.33198 12.7182 2.4305 13.029 2.617L21.029 7.417C21.3252 7.59469 21.5702 7.84605 21.7404 8.1466C21.9106 8.44714 22 8.78663 22 9.132V20C22 20.5304 21.7893 21.0391 21.4142 21.4142C21.0391 21.7893 20.5304 22 20 22H14Z" fill="#888888"/>
</svg>
