<svg width="48" height="24" viewBox="0 0 48 24" fill="none" xmlns="http://www.w3.org/2000/svg">
<path d="M36 22C30.477 22 26 17.523 26 12C26 6.477 30.477 2 36 2C41.523 2 46 6.477 46 12C46 17.523 41.523 22 36 22ZM36 20C38.1217 20 40.1566 19.1571 41.6569 17.6569C43.1571 16.1566 44 14.1217 44 12C44 9.87827 43.1571 7.84344 41.6569 6.34315C40.1566 4.84285 38.1217 4 36 4C33.8783 4 31.8434 4.84285 30.3431 6.34315C28.8429 7.84344 28 9.87827 28 12C28 14.1217 28.8429 16.1566 30.3431 17.6569C31.8434 19.1571 33.8783 20 36 20V20ZM36 6C37.0609 6 38.0783 6.42143 38.8284 7.17157C39.5786 7.92172 40 8.93913 40 10V12C40 13.0609 39.5786 14.0783 38.8284 14.8284C38.0783 15.5786 37.0609 16 36 16C34.9391 16 33.9217 15.5786 33.1716 14.8284C32.4214 14.0783 32 13.0609 32 12V10C32 8.93913 32.4214 7.92172 33.1716 7.17157C33.9217 6.42143 34.9391 6 36 6V6ZM36 8C35.4696 8 34.9609 8.21071 34.5858 8.58579C34.2107 8.96086 34 9.46957 34 10V12C34 12.5304 34.2107 13.0391 34.5858 13.4142C34.9609 13.7893 35.4696 14 36 14C36.5304 14 37.0391 13.7893 37.4142 13.4142C37.7893 13.0391 38 12.5304 38 12V10C38 9.46957 37.7893 8.96086 37.4142 8.58579C37.0391 8.21071 36.5304 8 36 8V8ZM31.91 18.876C31.334 18.5329 30.8032 18.119 30.33 17.644C30.924 16.946 31.681 16.4053 32.534 16.07C32.6569 16.0175 32.7892 15.9903 32.9228 15.9898C33.0565 15.9893 33.1889 16.0156 33.3122 16.0672C33.4355 16.1188 33.5473 16.1945 33.6408 16.29C33.7344 16.3855 33.8078 16.4988 33.8568 16.6231C33.9058 16.7475 33.9294 16.8804 33.9262 17.014C33.9229 17.1477 33.8929 17.2793 33.8379 17.4011C33.7829 17.523 33.7041 17.6325 33.606 17.7234C33.508 17.8142 33.3927 17.8845 33.267 17.93C32.735 18.14 32.274 18.468 31.909 18.876H31.91ZM40.054 18.898C39.6668 18.4697 39.1836 18.1394 38.644 17.934C38.5175 17.8901 38.4012 17.8213 38.3018 17.7316C38.2024 17.6419 38.1221 17.5332 38.0655 17.4119C38.009 17.2905 37.9773 17.1591 37.9725 17.0253C37.9677 16.8916 37.9897 16.7582 38.0374 16.6331C38.0851 16.508 38.1574 16.3938 38.25 16.2972C38.3427 16.2006 38.4538 16.1235 38.5767 16.0706C38.6997 16.0177 38.832 15.9901 38.9659 15.9893C39.0998 15.9885 39.2324 16.0146 39.356 16.066C40.2398 16.4021 41.0251 16.9547 41.64 17.673C41.1645 18.1459 40.6317 18.5575 40.054 18.898V18.898Z" fill="white"/>
<path d="M20 20V9.132L12 4.332L4 9.132V20H8V17.25C8 16.1891 8.42143 15.1717 9.17157 14.4216C9.92172 13.6714 10.9391 13.25 12 13.25C13.0609 13.25 14.0783 13.6714 14.8284 14.4216C15.5786 15.1717 16 16.1891 16 17.25V20H20ZM14 22V17.25C14 16.7196 13.7893 16.2109 13.4142 15.8358C13.0391 15.4607 12.5304 15.25 12 15.25C11.4696 15.25 10.9609 15.4607 10.5858 15.8358C10.2107 16.2109 10 16.7196 10 17.25V22H4C3.46957 22 2.96086 21.7893 2.58579 21.4142C2.21071 21.0391 2 20.5304 2 20V9.132C2 8.78663 2.08943 8.44714 2.25959 8.1466C2.42976 7.84605 2.67485 7.59469 2.971 7.417L10.971 2.617C11.2818 2.4305 11.6375 2.33198 12 2.33198C12.3625 2.33198 12.7182 2.4305 13.029 2.617L21.029 7.417C21.3252 7.59469 21.5702 7.84605 21.7404 8.1466C21.9106 8.44714 22 8.78663 22 9.132V20C22 20.5304 21.7893 21.0391 21.4142 21.4142C21.0391 21.7893 20.5304 22 20 22H14Z" fill="white"/>
</svg>
