<svg width="72" height="48" viewBox="0 0 72 48" fill="none" xmlns="http://www.w3.org/2000/svg">
<path d="M56.414 34.828H62.056C62.1873 34.828 62.3174 34.8539 62.4387 34.9041C62.56 34.9544 62.6702 35.028 62.7631 35.1209C62.856 35.2138 62.9296 35.324 62.9799 35.4453C63.0301 35.5666 63.056 35.6967 63.056 35.828C63.056 35.9593 63.0301 36.0894 62.9799 36.2107C62.9296 36.332 62.856 36.4422 62.7631 36.5351C62.6702 36.628 62.56 36.7016 62.4387 36.7519C62.3174 36.8021 62.1873 36.828 62.056 36.828H56.414L57.536 37.95C57.7235 38.1376 57.8288 38.3921 57.8287 38.6574C57.8286 38.9226 57.7231 39.177 57.5355 39.3645C57.3479 39.552 57.0934 39.6573 56.8281 39.6572C56.5629 39.6571 56.3085 39.5516 56.121 39.364L53.293 36.536C53.1997 36.4433 53.1256 36.3331 53.075 36.2117C53.0245 36.0903 52.9985 35.96 52.9985 35.8285C52.9985 35.697 53.0245 35.5667 53.075 35.4453C53.1256 35.3239 53.1997 35.2137 53.293 35.121L56.12 32.293C56.3075 32.1054 56.5619 31.9999 56.8271 31.9998C57.0924 31.9997 57.3469 32.105 57.5345 32.2925C57.7221 32.48 57.8276 32.7344 57.8277 32.9996C57.8278 33.2649 57.7225 33.5194 57.535 33.707L56.414 34.828ZM66 27C66.2652 27 66.5196 27.1054 66.7071 27.2929C66.8946 27.4804 67 27.7348 67 28V44C67 44.2652 66.8946 44.5196 66.7071 44.7071C66.5196 44.8946 66.2652 45 66 45C65.7348 45 65.4804 44.8946 65.2929 44.7071C65.1054 44.5196 65 44.2652 65 44V28C65 27.7348 65.1054 27.4804 65.2929 27.2929C65.4804 27.1054 65.7348 27 66 27V27Z" fill="#0E8EFF"/>
<path d="M56.414 10.828H62.056C62.1873 10.828 62.3174 10.8539 62.4387 10.9041C62.56 10.9544 62.6702 11.028 62.7631 11.1209C62.856 11.2138 62.9296 11.324 62.9799 11.4453C63.0301 11.5666 63.056 11.6967 63.056 11.828C63.056 11.9593 63.0301 12.0894 62.9799 12.2107C62.9296 12.332 62.856 12.4422 62.7631 12.5351C62.6702 12.628 62.56 12.7016 62.4387 12.7519C62.3174 12.8021 62.1873 12.828 62.056 12.828H56.414L57.536 13.95C57.7235 14.1376 57.8288 14.3921 57.8287 14.6574C57.8286 14.9226 57.7231 15.177 57.5355 15.3645C57.3479 15.552 57.0934 15.6573 56.8281 15.6572C56.5629 15.6571 56.3085 15.5516 56.121 15.364L53.293 12.536C53.1997 12.4433 53.1256 12.3331 53.075 12.2117C53.0245 12.0903 52.9985 11.96 52.9985 11.8285C52.9985 11.697 53.0245 11.5667 53.075 11.4453C53.1256 11.3239 53.1997 11.2137 53.293 11.121L56.12 8.293C56.3075 8.10536 56.5619 7.99989 56.8271 7.9998C57.0924 7.9997 57.3469 8.10499 57.5345 8.2925C57.7221 8.48001 57.8276 8.73438 57.8277 8.99965C57.8278 9.26492 57.7225 9.51936 57.535 9.707L56.414 10.828ZM66 3C66.2652 3 66.5196 3.10536 66.7071 3.29289C66.8946 3.48043 67 3.73478 67 4V20C67 20.2652 66.8946 20.5196 66.7071 20.7071C66.5196 20.8946 66.2652 21 66 21C65.7348 21 65.4804 20.8946 65.2929 20.7071C65.1054 20.5196 65 20.2652 65 20V4C65 3.73478 65.1054 3.48043 65.2929 3.29289C65.4804 3.10536 65.7348 3 66 3V3Z" fill="#888888"/>
<path d="M35.641 36.828H30C29.7348 36.828 29.4804 36.7226 29.2929 36.5351C29.1054 36.3476 29 36.0932 29 35.828C29 35.5628 29.1054 35.3084 29.2929 35.1209C29.4804 34.9334 29.7348 34.828 30 34.828H35.641L34.521 33.708C34.3387 33.5195 34.2377 33.267 34.2398 33.0048C34.2419 32.7426 34.3469 32.4917 34.5322 32.3062C34.7175 32.1206 34.9682 32.0153 35.2304 32.0128C35.4926 32.0104 35.7453 32.111 35.934 32.293L38.763 35.12C38.8563 35.2127 38.9304 35.3229 38.981 35.4443C39.0315 35.5657 39.0575 35.696 39.0575 35.8275C39.0575 35.959 39.0315 36.0893 38.981 36.2107C38.9304 36.3321 38.8563 36.4423 38.763 36.535L35.934 39.363C35.7447 39.5408 35.4936 39.6379 35.2339 39.6339C34.9742 39.6299 34.7263 39.525 34.5426 39.3414C34.3589 39.1578 34.2538 38.91 34.2496 38.6503C34.2454 38.3906 34.3423 38.1395 34.52 37.95L35.641 36.828ZM42 27C42.2652 27 42.5196 27.1054 42.7071 27.2929C42.8946 27.4804 43 27.7348 43 28V44C43 44.2652 42.8946 44.5196 42.7071 44.7071C42.5196 44.8946 42.2652 45 42 45C41.7348 45 41.4804 44.8946 41.2929 44.7071C41.1054 44.5196 41 44.2652 41 44V28C41 27.7348 41.1054 27.4804 41.2929 27.2929C41.4804 27.1054 41.7348 27 42 27V27Z" fill="#0E8EFF"/>
<path d="M35.641 12.828H30C29.7348 12.828 29.4804 12.7226 29.2929 12.5351C29.1054 12.3476 29 12.0932 29 11.828C29 11.5628 29.1054 11.3084 29.2929 11.1209C29.4804 10.9334 29.7348 10.828 30 10.828H35.641L34.521 9.708C34.3387 9.51953 34.2377 9.26699 34.2398 9.00479C34.2419 8.74259 34.3469 8.4917 34.5322 8.30616C34.7175 8.12062 34.9682 8.01528 35.2304 8.01281C35.4926 8.01035 35.7453 8.11097 35.934 8.293L38.763 11.12C38.8563 11.2127 38.9304 11.3229 38.981 11.4443C39.0315 11.5657 39.0575 11.696 39.0575 11.8275C39.0575 11.959 39.0315 12.0893 38.981 12.2107C38.9304 12.3321 38.8563 12.4423 38.763 12.535L35.934 15.363C35.7447 15.5408 35.4936 15.6379 35.2339 15.6339C34.9742 15.6299 34.7263 15.525 34.5426 15.3414C34.3589 15.1578 34.2538 14.91 34.2496 14.6503C34.2454 14.3906 34.3423 14.1395 34.52 13.95L35.641 12.828ZM42 3C42.2652 3 42.5196 3.10536 42.7071 3.29289C42.8946 3.48043 43 3.73478 43 4V20C43 20.2652 42.8946 20.5196 42.7071 20.7071C42.5196 20.8946 42.2652 21 42 21C41.7348 21 41.4804 20.8946 41.2929 20.7071C41.1054 20.5196 41 20.2652 41 20V4C41 3.73478 41.1054 3.48043 41.2929 3.29289C41.4804 3.10536 41.7348 3 42 3V3Z" fill="#888888"/>
<path d="M20 44V33.132L12 28.332L4 33.132V44H8V41.25C8 40.1891 8.42143 39.1717 9.17157 38.4216C9.92172 37.6714 10.9391 37.25 12 37.25C13.0609 37.25 14.0783 37.6714 14.8284 38.4216C15.5786 39.1717 16 40.1891 16 41.25V44H20ZM14 46V41.25C14 40.7196 13.7893 40.2109 13.4142 39.8358C13.0391 39.4607 12.5304 39.25 12 39.25C11.4696 39.25 10.9609 39.4607 10.5858 39.8358C10.2107 40.2109 10 40.7196 10 41.25V46H4C3.46957 46 2.96086 45.7893 2.58579 45.4142C2.21071 45.0391 2 44.5304 2 44V33.132C2 32.7866 2.08943 32.4471 2.25959 32.1466C2.42976 31.8461 2.67485 31.5947 2.971 31.417L10.971 26.617C11.2818 26.4305 11.6375 26.332 12 26.332C12.3625 26.332 12.7182 26.4305 13.029 26.617L21.029 31.417C21.3252 31.5947 21.5702 31.8461 21.7404 32.1466C21.9106 32.4471 22 32.7866 22 33.132V44C22 44.5304 21.7893 45.0391 21.4142 45.4142C21.0391 45.7893 20.5304 46 20 46H14Z" fill="#0E8EFF"/>
<path d="M20 20V9.132L12 4.332L4 9.132V20H8V17.25C8 16.1891 8.42143 15.1717 9.17157 14.4216C9.92172 13.6714 10.9391 13.25 12 13.25C13.0609 13.25 14.0783 13.6714 14.8284 14.4216C15.5786 15.1717 16 16.1891 16 17.25V20H20ZM14 22V17.25C14 16.7196 13.7893 16.2109 13.4142 15.8358C13.0391 15.4607 12.5304 15.25 12 15.25C11.4696 15.25 10.9609 15.4607 10.5858 15.8358C10.2107 16.2109 10 16.7196 10 17.25V22H4C3.46957 22 2.96086 21.7893 2.58579 21.4142C2.21071 21.0391 2 20.5304 2 20V9.132C2 8.78663 2.08943 8.44714 2.25959 8.1466C2.42976 7.84605 2.67485 7.59469 2.971 7.417L10.971 2.617C11.2818 2.4305 11.6375 2.33198 12 2.33198C12.3625 2.33198 12.7182 2.4305 13.029 2.617L21.029 7.417C21.3252 7.59469 21.5702 7.84605 21.7404 8.1466C21.9106 8.44714 22 8.78663 22 9.132V20C22 20.5304 21.7893 21.0391 21.4142 21.4142C21.0391 21.7893 20.5304 22 20 22H14Z" fill="#888888"/>
</svg>
