<?xml version="1.0" standalone="no"?>
<!DOCTYPE svg PUBLIC "-//W3C//DTD SVG 20010904//EN"
 "http://www.w3.org/TR/2001/REC-SVG-20010904/DTD/svg10.dtd">
<svg version="1.0" xmlns="http://www.w3.org/2000/svg"
 width="512.000000pt" height="512.000000pt" viewBox="0 0 512.000000 512.000000"
 preserveAspectRatio="xMidYMid meet">
<metadata>
Created by potrace 1.11, written by Peter Selinger 2001-2013
</metadata>
<g transform="translate(0.000000,512.000000) scale(0.100000,-0.100000)"
fill="#000000" stroke="none">
<path d="M2320 5110 c-491 -47 -981 -247 -1365 -557 -129 -104 -340 -321 -433
-445 -274 -365 -443 -782 -504 -1238 -16 -123 -16 -509 0 -625 65 -459 233
-873 501 -1230 92 -122 304 -341 426 -440 368 -299 822 -493 1305 -557 123
-16 509 -16 625 0 459 65 873 233 1230 501 122 92 341 304 440 426 299 368
493 822 557 1305 16 123 16 509 0 625 -65 459 -233 873 -501 1230 -92 122
-304 341 -426 440 -365 297 -826 494 -1295 555 -115 15 -443 21 -560 10z m390
-1201 c193 -18 331 -54 473 -125 251 -126 431 -356 521 -664 13 -47 21 -88 18
-91 -7 -6 -441 -69 -477 -69 -15 0 -25 13 -39 53 -55 156 -186 310 -317 372
-110 51 -176 65 -315 65 -286 0 -487 -115 -607 -348 -165 -319 -149 -850 33
-1129 83 -127 225 -228 380 -270 49 -14 102 -18 220 -18 172 0 208 8 332 72
128 66 243 221 297 397 35 115 51 106 -179 106 l-200 0 0 190 0 190 464 0 463
0 6 -86 c11 -157 -19 -385 -73 -544 -129 -383 -416 -650 -808 -752 -100 -26
-141 -31 -284 -35 -185 -6 -281 4 -417 43 -351 102 -626 357 -764 709 -150
382 -134 899 39 1273 126 273 366 493 649 595 183 65 369 86 585 66z"/>
</g>
</svg>
