<?xml version="1.0" standalone="no"?>
<!DOCTYPE svg PUBLIC "-//W3C//DTD SVG 20010904//EN"
 "http://www.w3.org/TR/2001/REC-SVG-20010904/DTD/svg10.dtd">
<svg version="1.0" xmlns="http://www.w3.org/2000/svg"
 width="512.000000pt" height="512.000000pt" viewBox="0 0 512.000000 512.000000"
 preserveAspectRatio="xMidYMid meet">
<metadata>
Created by potrace 1.11, written by Peter Selinger 2001-2013
</metadata>
<g transform="translate(0.000000,512.000000) scale(0.100000,-0.100000)"
fill="#000000" stroke="none">
<path d="M2332 5109 c-580 -53 -1127 -303 -1544 -707 -227 -220 -385 -435
-522 -712 -259 -523 -329 -1103 -204 -1690 50 -235 186 -569 323 -790 135
-217 361 -473 560 -635 367 -298 807 -487 1300 -557 117 -16 512 -16 630 0
460 65 873 233 1230 501 122 92 341 304 440 426 299 368 492 821 557 1305 19
145 16 518 -6 665 -81 540 -323 1034 -694 1417 -220 227 -435 385 -712 522
-421 209 -891 297 -1358 255z m1080 -1290 c150 -31 296 -149 365 -295 l38 -79
3 -188 4 -187 -274 2 -273 3 -3 103 -3 102 -709 0 -710 0 0 -710 0 -710 710 0
710 0 0 185 0 185 -270 0 -270 0 0 275 0 275 545 0 545 0 0 -518 c0 -569 0
-566 -62 -684 -61 -115 -202 -224 -328 -252 -102 -23 -1645 -24 -1734 -1 -198
52 -355 221 -386 415 -6 40 -10 365 -10 840 0 854 0 856 62 973 41 79 141 178
218 217 119 60 92 59 972 59 553 1 824 -2 860 -10z"/>
</g>
</svg>
