<svg width="944" height="276" viewBox="0 0 944 276" fill="none" xmlns="http://www.w3.org/2000/svg">
<g clip-path="url(#clip0)">
<path d="M107.112 114.6C104.832 110.4 101.532 107.22 97.2119 105.06C93.0119 102.78 88.0319 101.64 82.2719 101.64C72.3119 101.64 64.3319 104.94 58.3319 111.54C52.3319 118.02 49.3319 126.72 49.3319 137.64C49.3319 149.28 52.4519 158.4 58.6919 165C65.0519 171.48 73.7519 174.72 84.7919 174.72C92.3519 174.72 98.7119 172.8 103.872 168.96C109.152 165.12 112.992 159.6 115.392 152.4H76.3319V129.72H143.292V158.34C141.012 166.02 137.112 173.16 131.592 179.76C126.192 186.36 119.292 191.7 110.892 195.78C102.492 199.86 93.0119 201.9 82.4519 201.9C69.9719 201.9 58.8119 199.2 48.9719 193.8C39.2519 188.28 31.6319 180.66 26.1119 170.94C20.7119 161.22 18.0119 150.12 18.0119 137.64C18.0119 125.16 20.7119 114.06 26.1119 104.34C31.6319 94.5 39.2519 86.88 48.9719 81.48C58.6919 75.96 69.7919 73.2 82.2719 73.2C97.3919 73.2 110.112 76.86 120.432 84.18C130.872 91.5 137.772 101.64 141.132 114.6H107.112ZM170.421 90.12C165.021 90.12 160.581 88.56 157.101 85.44C153.741 82.2 152.061 78.24 152.061 73.56C152.061 68.76 153.741 64.8 157.101 61.68C160.581 58.44 165.021 56.82 170.421 56.82C175.701 56.82 180.021 58.44 183.381 61.68C186.861 64.8 188.601 68.76 188.601 73.56C188.601 78.24 186.861 82.2 183.381 85.44C180.021 88.56 175.701 90.12 170.421 90.12ZM185.721 100.56V201H154.941V100.56H185.721ZM240.787 99.12C247.867 99.12 254.047 100.56 259.327 103.44C264.727 106.32 268.867 110.1 271.747 114.78V100.56H302.527V200.82C302.527 210.06 300.667 218.4 296.947 225.84C293.347 233.4 287.767 239.4 280.207 243.84C272.767 248.28 263.467 250.5 252.307 250.5C237.427 250.5 225.367 246.96 216.127 239.88C206.887 232.92 201.607 223.44 200.287 211.44H230.707C231.667 215.28 233.947 218.28 237.547 220.44C241.147 222.72 245.587 223.86 250.867 223.86C257.227 223.86 262.267 222 265.987 218.28C269.827 214.68 271.747 208.86 271.747 200.82V186.6C268.747 191.28 264.607 195.12 259.327 198.12C254.047 201 247.867 202.44 240.787 202.44C232.507 202.44 225.007 200.34 218.287 196.14C211.567 191.82 206.227 185.76 202.267 177.96C198.427 170.04 196.507 160.92 196.507 150.6C196.507 140.28 198.427 131.22 202.267 123.42C206.227 115.62 211.567 109.62 218.287 105.42C225.007 101.22 232.507 99.12 240.787 99.12ZM271.747 150.78C271.747 143.1 269.587 137.04 265.267 132.6C261.067 128.16 255.907 125.94 249.787 125.94C243.667 125.94 238.447 128.16 234.127 132.6C229.927 136.92 227.827 142.92 227.827 150.6C227.827 158.28 229.927 164.4 234.127 168.96C238.447 173.4 243.667 175.62 249.787 175.62C255.907 175.62 261.067 173.4 265.267 168.96C269.587 164.52 271.747 158.46 271.747 150.78ZM313.275 150.6C313.275 140.28 315.195 131.22 319.035 123.42C322.995 115.62 328.335 109.62 335.055 105.42C341.775 101.22 349.275 99.12 357.555 99.12C364.635 99.12 370.815 100.56 376.095 103.44C381.495 106.32 385.635 110.1 388.515 114.78V100.56H419.295V201H388.515V186.78C385.515 191.46 381.315 195.24 375.915 198.12C370.635 201 364.455 202.44 357.375 202.44C349.215 202.44 341.775 200.34 335.055 196.14C328.335 191.82 322.995 185.76 319.035 177.96C315.195 170.04 313.275 160.92 313.275 150.6ZM388.515 150.78C388.515 143.1 386.355 137.04 382.035 132.6C377.835 128.16 372.675 125.94 366.555 125.94C360.435 125.94 355.215 128.16 350.895 132.6C346.695 136.92 344.595 142.92 344.595 150.6C344.595 158.28 346.695 164.4 350.895 168.96C355.215 173.4 360.435 175.62 366.555 175.62C372.675 175.62 377.835 173.4 382.035 168.96C386.355 164.52 388.515 158.46 388.515 150.78ZM564.323 99.48C576.803 99.48 586.703 103.26 594.023 110.82C601.463 118.38 605.183 128.88 605.183 142.32V201H574.583V146.46C574.583 139.98 572.843 135 569.363 131.52C566.003 127.92 561.323 126.12 555.323 126.12C549.323 126.12 544.583 127.92 541.103 131.52C537.743 135 536.063 139.98 536.063 146.46V201H505.463V146.46C505.463 139.98 503.723 135 500.243 131.52C496.883 127.92 492.203 126.12 486.203 126.12C480.203 126.12 475.463 127.92 471.983 131.52C468.623 135 466.943 139.98 466.943 146.46V201H436.163V100.56H466.943V113.16C470.063 108.96 474.143 105.66 479.183 103.26C484.223 100.74 489.923 99.48 496.283 99.48C503.843 99.48 510.563 101.1 516.443 104.34C522.443 107.58 527.123 112.2 530.483 118.2C533.963 112.68 538.703 108.18 544.703 104.7C550.703 101.22 557.243 99.48 564.323 99.48ZM715.99 149.16C715.99 152.04 715.81 155.04 715.45 158.16H645.79C646.27 164.4 648.25 169.2 651.73 172.56C655.33 175.8 659.71 177.42 664.87 177.42C672.55 177.42 677.89 174.18 680.89 167.7H713.65C711.97 174.3 708.91 180.24 704.47 185.52C700.15 190.8 694.69 194.94 688.09 197.94C681.49 200.94 674.11 202.44 665.95 202.44C656.11 202.44 647.35 200.34 639.67 196.14C631.99 191.94 625.99 185.94 621.67 178.14C617.35 170.34 615.19 161.22 615.19 150.78C615.19 140.34 617.29 131.22 621.49 123.42C625.81 115.62 631.81 109.62 639.49 105.42C647.17 101.22 655.99 99.12 665.95 99.12C675.67 99.12 684.31 101.16 691.87 105.24C699.43 109.32 705.31 115.14 709.51 122.7C713.83 130.26 715.99 139.08 715.99 149.16ZM684.49 141.06C684.49 135.78 682.69 131.58 679.09 128.46C675.49 125.34 670.99 123.78 665.59 123.78C660.43 123.78 656.05 125.28 652.45 128.28C648.97 131.28 646.81 135.54 645.97 141.06H684.49ZM767.688 202.44C758.928 202.44 751.128 200.94 744.288 197.94C737.448 194.94 732.048 190.86 728.088 185.7C724.128 180.42 721.908 174.54 721.428 168.06H751.848C752.208 171.54 753.828 174.36 756.708 176.52C759.588 178.68 763.128 179.76 767.328 179.76C771.168 179.76 774.108 179.04 776.148 177.6C778.308 176.04 779.388 174.06 779.388 171.66C779.388 168.78 777.888 166.68 774.888 165.36C771.888 163.92 767.028 162.36 760.308 160.68C753.108 159 747.108 157.26 742.308 155.46C737.508 153.54 733.368 150.6 729.888 146.64C726.408 142.56 724.668 137.1 724.668 130.26C724.668 124.5 726.228 119.28 729.348 114.6C732.588 109.8 737.268 106.02 743.388 103.26C749.628 100.5 757.008 99.12 765.528 99.12C778.128 99.12 788.028 102.24 795.228 108.48C802.548 114.72 806.748 123 807.828 133.32H779.388C778.908 129.84 777.348 127.08 774.708 125.04C772.188 123 768.828 121.98 764.628 121.98C761.028 121.98 758.268 122.7 756.348 124.14C754.428 125.46 753.468 127.32 753.468 129.72C753.468 132.6 754.968 134.76 757.968 136.2C761.088 137.64 765.888 139.08 772.368 140.52C779.808 142.44 785.868 144.36 790.548 146.28C795.228 148.08 799.308 151.08 802.788 155.28C806.388 159.36 808.248 164.88 808.368 171.84C808.368 177.72 806.688 183 803.328 187.68C800.088 192.24 795.348 195.84 789.108 198.48C782.988 201.12 775.848 202.44 767.688 202.44ZM883.539 99.48C895.059 99.48 904.299 103.32 911.259 111C918.219 118.56 921.699 129 921.699 142.32V201H891.099V146.46C891.099 139.74 889.359 134.52 885.879 130.8C882.399 127.08 877.719 125.22 871.839 125.22C865.959 125.22 861.279 127.08 857.799 130.8C854.319 134.52 852.579 139.74 852.579 146.46V201H821.799V67.8H852.579V114.06C855.699 109.62 859.959 106.08 865.359 103.44C870.759 100.8 876.819 99.48 883.539 99.48Z" fill="#202020"/>
</g>
<defs>
<clipPath id="clip0">
<rect width="944" height="276" fill="white"/>
</clipPath>
</defs>
</svg>
