<svg width="80" height="22" viewBox="0 0 80 22" fill="none" xmlns="http://www.w3.org/2000/svg">
<g clip-path="url(#clip0)">
<path d="M8.34875 17.24C11.6767 17.24 13.8047 14.888 13.8047 11.576C13.8047 11.528 13.7887 11.048 13.7727 10.904H9.62875V12.584H11.4527C11.1007 14.408 9.98075 15.224 8.49275 15.192C6.30075 15.16 5.21275 13.64 5.21275 11.24C5.21275 8.84 6.30075 7.256 8.49275 7.288C9.96475 7.304 10.9087 8.168 11.3247 9.512L13.5487 9.192C12.9727 6.68 11.3087 5.24 8.34875 5.24C5.34075 5.24 2.90875 7.416 2.90875 11.24C2.90875 15.144 5.43675 17.24 8.34875 17.24ZM15.0081 7.16H17.1841V5.24H15.0081V7.16ZM15.0081 17H17.1841V8.36H15.0081V17ZM24.8625 8.36V8.84C24.2785 8.384 23.5345 8.12 22.6385 8.12C20.1585 8.12 18.5425 10.04 18.5425 12.68C18.5425 15.272 20.1425 17.24 22.5265 17.24C23.3425 17.24 24.0305 17.04 24.5905 16.688V17.56C24.6225 18.52 23.7105 19.016 22.7345 19.016C22.1265 19.016 21.5665 18.744 21.2945 18.232L19.2785 19.208C19.9345 20.328 21.2465 21.08 22.7185 21.08C24.6225 21.08 26.2225 20.344 26.6385 18.76C26.7345 18.392 26.7665 18.024 26.7665 17.592V8.36H24.8625ZM22.8785 15.304C21.4705 15.304 20.8465 14.136 20.8465 12.68C20.8465 11.24 21.5025 10.056 22.9585 10.056C24.3185 10.056 24.8625 11.112 24.8625 12.68C24.8625 14.248 24.3345 15.304 22.8785 15.304ZM35.3429 9.688C34.7349 8.536 33.4869 8.12 31.9669 8.12C29.8869 8.12 28.7029 9.112 28.2709 10.536L30.2389 11.16C30.5109 10.376 31.3269 10.104 31.9669 10.104C32.9909 10.104 33.4629 10.472 33.5509 11.28C31.9269 11.52 30.6869 11.704 29.8549 12.008C28.4629 12.52 27.9669 13.416 27.9669 14.616C27.9669 16.056 28.9909 17.24 30.8469 17.24C32.1749 17.24 33.0229 16.856 33.7909 15.944V17H35.6949V11.72C35.6949 10.936 35.6789 10.328 35.3429 9.688ZM33.3109 14.376C33.1349 14.744 32.5109 15.528 31.3109 15.528C30.5589 15.528 30.0949 15.176 30.0949 14.584C30.0949 14.152 30.3509 13.848 30.9909 13.592C31.4869 13.408 32.0789 13.288 33.5349 13.04C33.5269 13.456 33.4949 14 33.3109 14.376ZM46.799 8.152C45.687 8.152 44.719 8.664 44.159 9.496C43.711 8.688 42.887 8.152 41.647 8.152C40.607 8.152 39.695 8.592 39.119 9.304V8.36H37.199V17H39.391V11.768C39.391 10.776 39.983 10.088 40.895 10.088C41.839 10.088 42.415 10.76 42.415 11.896V17H44.591V11.768C44.591 10.776 45.183 10.088 46.095 10.088C47.039 10.088 47.615 10.76 47.615 11.896V17H49.791V11.32C49.791 9.432 48.767 8.152 46.799 8.152ZM53.019 13.288H59.083C59.347 10.152 57.763 8.12 55.043 8.12C52.483 8.12 50.675 9.96 50.675 12.792C50.675 15.384 52.515 17.24 55.171 17.24C56.835 17.24 58.355 16.328 59.011 14.744L56.835 14.12C56.515 14.824 55.891 15.208 55.043 15.208C53.867 15.208 53.179 14.52 53.019 13.288ZM55.139 10.008C56.187 10.008 56.731 10.504 56.883 11.672H53.075C53.299 10.576 53.971 10.008 55.139 10.008ZM63.7054 17.24C65.9614 17.24 67.3214 16.168 67.3214 14.392C67.3214 13.048 66.5694 12.344 64.6014 11.832C62.5854 11.32 62.2974 11.176 62.2974 10.728C62.2974 10.232 62.8254 9.944 63.6254 9.992C64.4414 10.056 64.9374 10.44 65.0174 11.08L67.2414 10.68C67.0174 9.112 65.6094 8.12 63.5774 8.12C61.4814 8.12 60.1374 9.176 60.1374 10.84C60.1374 12.168 60.9054 12.84 63.0174 13.384C64.8894 13.88 65.0974 13.992 65.0974 14.504C65.0974 15.048 64.6494 15.368 63.8654 15.368C62.9054 15.368 62.2494 14.888 62.0734 14.072L59.8494 14.408C60.1374 16.216 61.5294 17.24 63.7054 17.24ZM73.2394 8.104C71.9994 8.104 71.0634 8.552 70.4394 9.248V5.48H68.5034V17H70.7114V12.616C70.7114 10.472 71.7994 10.152 72.5514 10.152C74.4074 10.152 74.4074 12.136 74.4074 12.92V17H76.6154V12.152C76.6154 11.432 76.6154 8.104 73.2394 8.104Z" fill="#202020"/>
</g>
<defs>
<clipPath id="clip0">
<rect width="80" height="22" fill="white"/>
</clipPath>
</defs>
</svg>
