<svg width="868" height="242" viewBox="0 0 868 242" fill="none" xmlns="http://www.w3.org/2000/svg">
<g clip-path="url(#clip0)">
<path d="M74.7734 192.7C112.213 192.7 136.153 166.24 136.153 128.98C136.153 128.44 135.973 123.04 135.793 121.42H89.1734V140.32H109.693C105.733 160.84 93.1334 170.02 76.3934 169.66C51.7334 169.3 39.4934 152.2 39.4934 125.2C39.4934 98.2 51.7334 80.38 76.3934 80.74C92.9534 80.92 103.573 90.64 108.253 105.76L133.273 102.16C126.793 73.9 108.073 57.7 74.7734 57.7C40.9334 57.7 13.5734 82.18 13.5734 125.2C13.5734 169.12 42.0134 192.7 74.7734 192.7ZM150.591 79.3H175.071V57.7H150.591V79.3ZM150.591 190H175.071V92.8H150.591V190ZM262.353 92.8V98.2C255.783 93.07 247.413 90.1 237.333 90.1C209.433 90.1 191.253 111.7 191.253 141.4C191.253 170.56 209.253 192.7 236.073 192.7C245.253 192.7 252.993 190.45 259.293 186.49V196.3C259.653 207.1 249.393 212.68 238.413 212.68C231.573 212.68 225.273 209.62 222.213 203.86L199.533 214.84C206.913 227.44 221.673 235.9 238.233 235.9C259.653 235.9 277.653 227.62 282.333 209.8C283.413 205.66 283.773 201.52 283.773 196.66V92.8H262.353ZM240.033 170.92C224.193 170.92 217.173 157.78 217.173 141.4C217.173 125.2 224.553 111.88 240.933 111.88C256.233 111.88 262.353 123.76 262.353 141.4C262.353 159.04 256.413 170.92 240.033 170.92ZM381.157 107.74C374.317 94.78 360.277 90.1 343.177 90.1C319.777 90.1 306.457 101.26 301.597 117.28L323.737 124.3C326.797 115.48 335.977 112.42 343.177 112.42C354.697 112.42 360.007 116.56 360.997 125.65C342.727 128.35 328.777 130.42 319.417 133.84C303.757 139.6 298.177 149.68 298.177 163.18C298.177 179.38 309.697 192.7 330.577 192.7C345.517 192.7 355.057 188.38 363.697 178.12V190H385.117V130.6C385.117 121.78 384.937 114.94 381.157 107.74ZM358.297 160.48C356.317 164.62 349.297 173.44 335.797 173.44C327.337 173.44 322.117 169.48 322.117 162.82C322.117 157.96 324.997 154.54 332.197 151.66C337.777 149.59 344.437 148.24 360.817 145.45C360.727 150.13 360.367 156.25 358.297 160.48ZM510.939 90.46C498.429 90.46 487.539 96.22 481.239 105.58C476.199 96.49 466.929 90.46 452.979 90.46C441.279 90.46 431.019 95.41 424.539 103.42V92.8H402.939V190H427.599V131.14C427.599 119.98 434.259 112.24 444.519 112.24C455.139 112.24 461.619 119.8 461.619 132.58V190H486.099V131.14C486.099 119.98 492.759 112.24 503.019 112.24C513.639 112.24 520.119 119.8 520.119 132.58V190H544.599V126.1C544.599 104.86 533.079 90.46 510.939 90.46ZM581.814 148.24H650.034C653.004 112.96 635.184 90.1 604.584 90.1C575.784 90.1 555.444 110.8 555.444 142.66C555.444 171.82 576.144 192.7 606.024 192.7C624.744 192.7 641.844 182.44 649.224 164.62L624.744 157.6C621.144 165.52 614.124 169.84 604.584 169.84C591.354 169.84 583.614 162.1 581.814 148.24ZM605.664 111.34C617.454 111.34 623.574 116.92 625.284 130.06H582.444C584.964 117.73 592.524 111.34 605.664 111.34ZM702.935 192.7C728.315 192.7 743.615 180.64 743.615 160.66C743.615 145.54 735.155 137.62 713.015 131.86C690.335 126.1 687.095 124.48 687.095 119.44C687.095 113.86 693.035 110.62 702.035 111.16C711.215 111.88 716.795 116.2 717.695 123.4L742.715 118.9C740.195 101.26 724.355 90.1 701.495 90.1C677.915 90.1 662.795 101.98 662.795 120.7C662.795 135.64 671.435 143.2 695.195 149.32C716.255 154.9 718.595 156.16 718.595 161.92C718.595 168.04 713.555 171.64 704.735 171.64C693.935 171.64 686.555 166.24 684.575 157.06L659.555 160.84C662.795 181.18 678.455 192.7 702.935 192.7ZM811.093 89.92C797.143 89.92 786.613 94.96 779.593 102.79V60.4H757.813V190H782.653V140.68C782.653 116.56 794.893 112.96 803.353 112.96C824.233 112.96 824.233 135.28 824.233 144.1V190H849.073V135.46C849.073 127.36 849.073 89.92 811.093 89.92Z" fill="#202020"/>
</g>
<defs>
<clipPath id="clip0">
<rect width="868" height="242" fill="white"/>
</clipPath>
</defs>
</svg>
