<svg width="944" height="276" viewBox="0 0 944 276" fill="none" xmlns="http://www.w3.org/2000/svg">
<g clip-path="url(#clip0)">
<path d="M171.717 133.64V197.9C164.877 201.02 157.197 203.42 148.677 205.1C140.277 206.78 131.637 207.62 122.757 207.62C108.837 207.62 96.7171 204.98 86.3971 199.7C76.1971 194.42 68.3371 186.86 62.8171 177.02C57.2971 167.06 54.5371 155.3 54.5371 141.74C54.5371 128.54 57.2971 117.02 62.8171 107.18C68.3371 97.22 76.1371 89.6 86.2171 84.32C96.2971 78.92 108.057 76.22 121.497 76.22C130.737 76.22 139.437 77.42 147.597 79.82C155.877 82.22 162.597 85.52 167.757 89.72L157.137 113.66C151.257 109.82 145.557 107.06 140.037 105.38C134.637 103.58 128.817 102.68 122.577 102.68C111.177 102.68 102.657 105.92 97.0171 112.4C91.4971 118.76 88.7371 128.54 88.7371 141.74C88.7371 155.42 91.6171 165.56 97.3771 172.16C103.257 178.76 112.257 182.06 124.377 182.06C130.017 182.06 135.657 181.46 141.297 180.26V156.5H118.977V133.64H171.717ZM185.933 114.56H218.513V206H185.933V114.56ZM219.053 69.74V99.08H185.033V69.74H219.053ZM329.944 114.56V200.24C329.944 215.24 325.444 226.64 316.444 234.44C307.444 242.36 294.244 246.32 276.844 246.32C261.964 246.32 249.064 243.68 238.144 238.4L243.004 214.64C248.404 217.04 253.924 218.9 259.564 220.22C265.324 221.66 270.724 222.38 275.764 222.38C283.204 222.38 288.664 220.76 292.144 217.52C295.744 214.4 297.544 209.48 297.544 202.76V189.26C294.544 193.22 290.464 196.58 285.304 199.34C280.264 202.1 274.864 203.48 269.104 203.48C261.304 203.48 254.284 201.62 248.044 197.9C241.924 194.06 237.124 188.72 233.644 181.88C230.164 174.92 228.424 166.88 228.424 157.76C228.424 148.76 230.164 140.84 233.644 134C237.124 127.04 241.924 121.64 248.044 117.8C254.284 113.96 261.304 112.04 269.104 112.04C275.224 112.04 280.804 113.3 285.844 115.82C290.884 118.34 294.784 121.76 297.544 126.08V114.56H329.944ZM279.184 179.18C284.944 179.18 289.444 177.32 292.684 173.6C295.924 169.76 297.544 164.48 297.544 157.76C297.544 151.28 295.924 146.18 292.684 142.46C289.444 138.62 284.944 136.7 279.184 136.7C273.424 136.7 268.864 138.56 265.504 142.28C262.264 146 260.644 151.16 260.644 157.76C260.644 164.36 262.324 169.58 265.684 173.42C269.044 177.26 273.544 179.18 279.184 179.18ZM440.007 114.56V206H407.967V193.58C405.327 197.9 401.487 201.32 396.447 203.84C391.407 206.24 385.887 207.44 379.887 207.44C372.087 207.44 365.127 205.52 359.007 201.68C352.887 197.84 348.087 192.38 344.607 185.3C341.247 178.1 339.567 169.82 339.567 160.46C339.567 150.98 341.307 142.58 344.787 135.26C348.267 127.94 353.067 122.24 359.187 118.16C365.307 114.08 372.207 112.04 379.887 112.04C385.887 112.04 391.347 113.36 396.267 116C401.307 118.52 405.207 121.94 407.967 126.26V114.56H440.007ZM389.967 183.14C395.727 183.14 400.167 181.16 403.287 177.2C406.407 173.24 407.967 167.54 407.967 160.1C407.967 152.54 406.407 146.78 403.287 142.82C400.167 138.74 395.727 136.7 389.967 136.7C384.327 136.7 379.887 138.8 376.647 143C373.407 147.08 371.787 152.9 371.787 160.46C371.787 167.78 373.347 173.42 376.467 177.38C379.587 181.22 384.087 183.14 389.967 183.14ZM570.431 112.04C580.991 112.04 588.791 115.28 593.831 121.76C598.991 128.24 601.571 138.14 601.571 151.46V206H568.991V152.36C568.991 146.96 568.151 143.06 566.471 140.66C564.911 138.26 562.211 137.06 558.371 137.06C553.811 137.06 550.271 138.74 547.751 142.1C545.231 145.46 543.971 150.2 543.971 156.32V206H511.391V152.36C511.391 146.96 510.551 143.06 508.871 140.66C507.191 138.26 504.491 137.06 500.771 137.06C496.211 137.06 492.671 138.74 490.151 142.1C487.751 145.46 486.551 150.2 486.551 156.32V206H453.971V140.84C453.971 131 453.491 122.24 452.531 114.56H483.131L484.751 127.34C487.511 122.42 491.351 118.64 496.271 116C501.311 113.36 507.071 112.04 513.551 112.04C526.631 112.04 535.511 117.56 540.191 128.6C543.431 123.56 547.691 119.54 552.971 116.54C558.371 113.54 564.191 112.04 570.431 112.04ZM699.456 163.52H642.036C642.636 170.6 644.676 175.7 648.156 178.82C651.636 181.94 656.736 183.5 663.456 183.5C668.016 183.5 672.576 182.78 677.136 181.34C681.696 179.78 685.836 177.68 689.556 175.04L697.836 196.64C693.276 200 687.756 202.64 681.276 204.56C674.796 206.48 668.316 207.44 661.836 207.44C651.396 207.44 642.336 205.52 634.656 201.68C626.976 197.84 621.096 192.38 617.016 185.3C612.936 178.1 610.896 169.64 610.896 159.92C610.896 150.68 612.816 142.46 616.656 135.26C620.616 127.94 626.016 122.24 632.856 118.16C639.816 114.08 647.736 112.04 656.616 112.04C665.256 112.04 672.816 113.96 679.296 117.8C685.776 121.64 690.756 127.16 694.236 134.36C697.716 141.44 699.456 149.72 699.456 159.2V163.52ZM657.516 134.36C649.476 134.36 644.436 139.04 642.396 148.4H671.556C670.356 139.04 665.676 134.36 657.516 134.36ZM746.028 207.44C727.788 207.44 713.388 203.78 702.828 196.46L711.108 174.32C716.028 177.68 721.608 180.32 727.848 182.24C734.088 184.04 740.208 184.94 746.208 184.94C749.928 184.94 752.808 184.4 754.848 183.32C756.888 182.24 757.908 180.74 757.908 178.82C757.908 177.14 757.128 175.82 755.568 174.86C754.128 173.78 751.308 172.82 747.108 171.98L732.348 168.56C722.988 166.64 716.208 163.64 712.008 159.56C707.928 155.36 705.888 149.6 705.888 142.28C705.888 136.4 707.628 131.18 711.108 126.62C714.588 122.06 719.388 118.52 725.508 116C731.748 113.36 738.888 112.04 746.928 112.04C753.528 112.04 760.008 113 766.368 114.92C772.728 116.84 778.668 119.54 784.188 123.02L775.548 144.62C770.748 141.5 765.828 139.1 760.788 137.42C755.748 135.74 751.008 134.9 746.568 134.9C742.968 134.9 740.148 135.5 738.108 136.7C736.068 137.78 735.048 139.4 735.048 141.56C735.048 142.88 735.648 143.96 736.848 144.8C738.048 145.52 740.328 146.3 743.688 147.14L758.988 150.56C768.708 152.84 775.668 156.2 779.868 160.64C784.188 164.96 786.348 170.9 786.348 178.46C786.348 187.46 782.748 194.54 775.548 199.7C768.468 204.86 758.628 207.44 746.028 207.44ZM856.159 112.04C866.959 112.04 874.999 115.34 880.279 121.94C885.679 128.42 888.379 138.26 888.379 151.46V206H855.799V152.9C855.799 147.26 854.839 143.24 852.919 140.84C850.999 138.32 847.999 137.06 843.919 137.06C838.999 137.06 835.039 138.74 832.039 142.1C829.039 145.34 827.539 149.66 827.539 155.06V206H794.959V73.52H827.539V125.72C834.619 116.6 844.159 112.04 856.159 112.04Z" fill="#202020"/>
</g>
<defs>
<clipPath id="clip0">
<rect width="944" height="276" fill="white"/>
</clipPath>
</defs>
</svg>
