<?xml version="1.0" standalone="no"?>
<!DOCTYPE svg PUBLIC "-//W3C//DTD SVG 20010904//EN"
 "http://www.w3.org/TR/2001/REC-SVG-20010904/DTD/svg10.dtd">
<svg version="1.0" xmlns="http://www.w3.org/2000/svg"
 width="512.000000pt" height="512.000000pt" viewBox="0 0 512.000000 512.000000"
 preserveAspectRatio="xMidYMid meet">
<metadata>
Created by potrace 1.11, written by Peter Selinger 2001-2013
</metadata>
<g transform="translate(0.000000,512.000000) scale(0.100000,-0.100000)"
fill="#000000" stroke="none">
<path d="M2370 5114 c-126 -12 -341 -47 -443 -74 -349 -91 -696 -265 -972
-487 -129 -104 -340 -321 -433 -445 -274 -365 -443 -782 -504 -1238 -16 -123
-16 -509 0 -625 65 -459 233 -873 501 -1230 92 -122 304 -341 426 -440 368
-299 822 -493 1305 -557 123 -16 509 -16 625 0 459 65 873 233 1230 501 122
92 341 304 440 426 299 368 493 822 557 1305 16 123 16 509 0 625 -65 459
-233 873 -501 1230 -92 122 -304 341 -426 440 -362 294 -792 481 -1269 551
-99 14 -446 26 -536 18z m1220 -1140 c182 -70 306 -189 376 -359 28 -68 29
-77 32 -272 l4 -203 -311 0 -310 0 -3 118 -3 117 -815 0 -815 0 0 -815 0 -815
815 0 815 0 0 215 0 215 -312 3 -313 2 0 310 0 310 625 0 626 0 -3 -612 -3
-613 -26 -66 c-73 -187 -243 -334 -434 -374 -104 -22 -1846 -22 -1950 0 -207
44 -375 203 -442 420 -17 56 -18 116 -18 1005 0 888 1 949 18 1004 33 107 76
177 156 257 89 88 161 132 263 159 70 18 111 19 1023 17 942 -2 950 -2 1005
-23z"/>
</g>
</svg>
