<?xml version="1.0" standalone="no"?>
<!DOCTYPE svg PUBLIC "-//W3C//DTD SVG 20010904//EN"
 "http://www.w3.org/TR/2001/REC-SVG-20010904/DTD/svg10.dtd">
<svg version="1.0" xmlns="http://www.w3.org/2000/svg"
 width="512.000000pt" height="512.000000pt" viewBox="0 0 512.000000 512.000000"
 preserveAspectRatio="xMidYMid meet">
<metadata>
Created by potrace 1.11, written by Peter Selinger 2001-2013
</metadata>
<g transform="translate(0.000000,512.000000) scale(0.100000,-0.100000)"
fill="#000000" stroke="none">
<path d="M1605 5075 c182 -124 355 -302 498 -514 49 -73 117 -188 117 -198 0
-3 -21 11 -47 30 -196 144 -404 238 -604 276 -30 5 -110 8 -179 7 -100 -3
-143 -9 -212 -30 -140 -41 -283 -125 -395 -230 -35 -32 -40 -43 -20 -43 16 0
164 -13 202 -18 17 -2 62 -6 100 -10 39 -3 93 -8 120 -11 28 -3 68 -7 90 -9
22 -2 72 -7 110 -10 39 -3 84 -8 100 -10 17 -2 62 -6 100 -10 39 -3 88 -8 110
-10 22 -2 67 -7 100 -10 33 -3 78 -8 100 -10 22 -2 74 -7 115 -11 41 -4 84 -8
95 -9 11 -1 42 -3 69 -4 62 -1 57 -7 -14 -15 -314 -37 -570 -183 -758 -431
-50 -67 -180 -305 -166 -305 3 0 2 -6 -4 -12 -22 -28 -92 -281 -107 -388 -3
-25 -8 -52 -10 -60 -8 -30 -26 -290 -21 -290 2 0 41 46 87 102 46 56 100 120
119 143 19 23 51 61 71 86 20 24 63 76 95 115 33 39 75 90 94 114 19 24 69 85
110 134 41 50 104 127 140 171 35 44 67 82 70 85 3 3 78 93 165 200 88 107
168 204 177 215 9 11 24 29 32 40 8 11 17 17 21 13 27 -27 102 -323 129 -508
22 -154 24 -171 40 -350 15 -166 25 -407 28 -656 l2 -212 -49 -45 c-40 -37
-55 -44 -75 -40 -79 20 -155 -3 -221 -64 l-26 -24 -29 24 c-71 59 -207 101
-316 99 -138 -2 -252 -51 -364 -154 -37 -34 -46 -38 -75 -32 -100 19 -184 6
-264 -40 -87 -52 -161 -164 -167 -256 l-3 -45 705 0 705 0 -2 30 c-3 68 -17
121 -57 217 -7 15 5 16 113 17 l120 1 -4 -127 c-5 -171 -14 -373 -20 -453 -3
-36 -7 -112 -10 -170 -4 -58 -8 -112 -10 -120 -3 -10 -19 -15 -52 -16 -83 -1
-315 -14 -322 -18 -3 -2 -36 -7 -73 -10 -37 -4 -77 -9 -90 -11 -13 -3 -52 -9
-88 -14 -36 -6 -76 -13 -90 -16 -14 -3 -41 -8 -60 -11 -19 -3 -38 -8 -41 -10
-3 -2 -19 -5 -35 -8 -16 -3 -78 -19 -138 -36 -333 -94 -619 -243 -779 -406
-41 -42 -50 -47 -65 -36 -81 59 -160 61 -240 5 -41 -28 -66 -38 -108 -41 -49
-4 -60 -1 -121 36 -38 23 -81 43 -96 46 l-29 5 4 -222 c3 -204 5 -226 25 -270
37 -80 95 -141 170 -178 l68 -34 2295 0 2295 0 55 26 c72 34 145 106 178 177
26 55 27 63 30 279 l4 222 -29 -5 c-15 -3 -58 -23 -96 -46 -62 -37 -72 -40
-122 -36 -43 4 -67 13 -110 42 -81 56 -148 56 -230 -3 -69 -49 -73 -48 -137
34 -98 127 -244 236 -441 330 -107 51 -270 110 -367 133 -25 6 -58 14 -75 18
-36 8 -42 10 -120 23 -138 24 -240 33 -404 35 l-135 2 -2 75 c-4 138 -16 464
-19 524 -2 33 -6 111 -9 173 l-6 113 67 -1 c118 -3 113 -4 113 33 -1 83 -66
191 -152 255 -30 22 -55 46 -55 54 0 27 -14 196 -23 283 -6 50 -13 115 -16
145 -5 51 -48 370 -60 450 -12 84 -46 268 -54 295 -5 17 -11 41 -14 55 -14 83
-86 319 -113 373 -16 32 -13 33 14 10 12 -10 51 -43 89 -73 37 -30 99 -82 139
-115 39 -33 91 -76 115 -95 25 -19 60 -49 80 -66 19 -16 48 -40 64 -52 16 -12
50 -40 75 -62 25 -21 105 -87 176 -145 72 -59 150 -124 175 -144 25 -21 99
-83 166 -137 67 -54 140 -115 164 -134 23 -19 47 -37 52 -39 9 -3 5 144 -5
194 -7 31 -19 104 -18 110 2 16 -73 212 -99 259 l-31 56 256 0 256 0 -6 38
c-10 71 -14 84 -39 127 -38 64 -86 108 -152 141 -52 25 -70 29 -149 29 -103 0
-157 -19 -225 -81 -37 -33 -42 -35 -87 -28 -37 5 -67 21 -133 70 -192 144
-493 256 -785 291 -33 4 -63 6 -67 5 -5 -1 -8 3 -8 8 0 6 10 10 23 11 12 0 38
2 57 4 19 2 89 9 155 15 66 6 138 13 160 15 68 7 158 16 195 20 19 2 69 7 110
10 41 3 91 8 110 10 34 5 55 7 200 20 36 3 81 8 100 10 19 2 62 7 95 10 33 3
89 8 125 12 36 3 75 6 87 7 14 0 19 4 15 11 -6 10 -66 64 -97 88 -5 4 -27 20
-47 36 -21 16 -73 47 -116 69 -220 115 -473 131 -727 47 -110 -36 -298 -129
-360 -178 -70 -54 -146 -107 -140 -96 72 124 161 236 279 355 150 150 255 226
416 305 l35 17 -25 10 c-47 18 -185 32 -266 27 -222 -13 -394 -130 -504 -342
l-30 -57 -16 39 c-20 48 -81 138 -126 185 -136 144 -320 216 -578 227 l-125 5
70 -47z m910 -845 c3 -6 -1 -7 -9 -4 -18 7 -21 14 -7 14 6 0 13 -4 16 -10z"/>
<path d="M2023 3259 c-43 -8 -108 -44 -144 -80 -16 -16 -29 -19 -62 -15 -61 7
-118 -11 -161 -50 -38 -35 -66 -87 -66 -124 0 -20 3 -20 398 -18 257 2 396 7
395 13 0 6 -3 24 -6 42 -8 51 -48 122 -90 159 -70 64 -169 91 -264 73z"/>
<path d="M3838 2010 c-57 -10 -160 -65 -205 -109 -37 -37 -43 -39 -76 -31
-152 34 -308 -74 -333 -229 l-7 -41 39 0 c22 -1 273 -1 559 -1 l520 0 -3 46
c-11 195 -192 363 -397 370 -33 1 -77 -1 -97 -5z"/>
</g>
</svg>
