<?xml version="1.0" standalone="no"?>
<!DOCTYPE svg PUBLIC "-//W3C//DTD SVG 20010904//EN"
 "http://www.w3.org/TR/2001/REC-SVG-20010904/DTD/svg10.dtd">
<svg version="1.0" xmlns="http://www.w3.org/2000/svg"
 width="512.000000pt" height="512.000000pt" viewBox="0 0 512.000000 512.000000"
 preserveAspectRatio="xMidYMid meet">
<metadata>
Created by potrace 1.11, written by Peter Selinger 2001-2013
</metadata>
<g transform="translate(0.000000,512.000000) scale(0.100000,-0.100000)"
fill="#000000" stroke="none">
<path d="M2347 5110 c-599 -54 -1139 -301 -1566 -715 -521 -507 -805 -1206
-777 -1920 21 -562 217 -1092 563 -1520 104 -129 321 -340 445 -433 365 -274
782 -443 1238 -504 123 -16 509 -16 625 0 459 65 873 233 1230 501 122 92 341
304 440 426 388 477 595 1093 571 1700 -24 647 -274 1233 -721 1694 -406 418
-908 672 -1495 756 -131 19 -423 27 -553 15z m1088 -1295 c197 -52 365 -243
383 -435 4 -41 6 -128 4 -193 l-3 -117 -272 2 -272 3 -3 103 -3 102 -709 0
-710 0 0 -710 0 -710 710 0 710 0 0 185 0 185 -270 0 -270 0 0 275 0 275 545
0 545 0 0 -518 c0 -569 0 -566 -62 -684 -61 -115 -202 -224 -328 -252 -102
-23 -1645 -24 -1734 -1 -140 37 -269 138 -334 262 -62 117 -62 118 -62 983 0
862 0 862 61 981 39 79 143 183 221 222 112 57 87 55 973 56 707 1 829 -1 880
-14z"/>
</g>
</svg>
